<svg width="47" height="11" fill="none" xmlns="http://www.w3.org/2000/svg"><path d="M.078 5.45h8.176v1.036H.078V5.45zm21.81.168h3.891v1.036h-3.892V5.618zm-6.413-1.974l-.755-1.47h-.056l.168 1.414V10h-1.12V.046h.616l4.424 6.482.713 1.4h.07l-.154-1.344V.2h1.12v9.954h-.643l-4.383-6.51zm6.147-1.232c0-.42.055-.78.168-1.078.111-.299.26-.546.448-.742.195-.196.424-.336.686-.42.27-.093.56-.14.867-.14.308 0 .593.042.854.126.271.084.5.22.686.406.197.187.35.434.463.742.111.299.168.667.168 1.106 0 .439-.056.812-.168 1.12a1.914 1.914 0 01-.463.728 1.64 1.64 0 01-.686.406 2.777 2.777 0 01-.854.126c-.308 0-.597-.042-.867-.126a1.764 1.764 0 01-.686-.406 2.01 2.01 0 01-.448-.728c-.113-.308-.168-.681-.168-1.12zm1.035 0c0 .56.099.961.294 1.204.206.243.486.364.84.364.178 0 .337-.023.476-.07a.866.866 0 00.35-.252 1.13 1.13 0 00.224-.476 2.98 2.98 0 00.084-.77c0-.308-.027-.56-.084-.756a1.03 1.03 0 00-.224-.476.722.722 0 00-.35-.252 1.273 1.273 0 00-.476-.084c-.354 0-.634.112-.84.336-.195.215-.294.625-.294 1.232zm7.175 6.776c.644 0 1.176-.187 1.596-.56.42-.373.63-.915.63-1.624 0-.681-.21-1.19-.63-1.526-.411-.336-.98-.504-1.708-.504l-1.176.07V.2h4.368v1.036h-3.318v2.786l.602-.028c.924.01 1.652.266 2.184.77.532.504.798 1.227.798 2.17a3.5 3.5 0 01-.266 1.4c-.178.401-.42.737-.728 1.008-.3.27-.654.476-1.064.616-.411.14-.85.21-1.316.21-.42 0-.775-.023-1.064-.07a4.312 4.312 0 01-.812-.21l.294-.952a3.9 3.9 0 00.686.196c.252.037.56.056.924.056zm8.91-3.738h8.176v1.036h-8.176V5.45z" fill="#333"/></svg>