<svg width="47" height="11" fill="none" xmlns="http://www.w3.org/2000/svg"><path d="M.078 5.45h8.176v1.036H.078V5.45zm21.81.168h3.891v1.036h-3.892V5.618zm-6.413-1.974l-.755-1.47h-.056l.168 1.414V10h-1.12V.046h.616l4.424 6.482.713 1.4h.07l-.154-1.344V.2h1.12v9.954h-.643l-4.383-6.51zm6.147-1.232c0-.42.055-.78.168-1.078.111-.299.26-.546.448-.742.195-.196.424-.336.686-.42.27-.093.56-.14.867-.14.308 0 .593.042.854.126.271.084.5.22.686.406.197.187.35.434.463.742.111.299.168.667.168 1.106 0 .439-.056.812-.168 1.12a1.914 1.914 0 01-.463.728 1.64 1.64 0 01-.686.406 2.777 2.777 0 01-.854.126c-.308 0-.597-.042-.867-.126a1.764 1.764 0 01-.686-.406 2.01 2.01 0 01-.448-.728c-.113-.308-.168-.681-.168-1.12zm1.035 0c0 .56.099.961.294 1.204.206.243.486.364.84.364.178 0 .337-.023.476-.07a.866.866 0 00.35-.252 1.13 1.13 0 00.224-.476 2.98 2.98 0 00.084-.77c0-.308-.027-.56-.084-.756a1.03 1.03 0 00-.224-.476.722.722 0 00-.35-.252 1.273 1.273 0 00-.476-.084c-.354 0-.634.112-.84.336-.195.215-.294.625-.294 1.232zm10.437.014c0 .495-.094 1.003-.28 1.526a9.175 9.175 0 01-.714 1.554c-.29.523-.616 1.036-.98 1.54-.364.495-.728.966-1.092 1.414l-.686.602v.056l.896-.154h3.052V10h-5.572v-.406c.205-.215.452-.48.742-.798.289-.317.588-.667.896-1.05.317-.392.625-.803.924-1.232.308-.439.583-.882.826-1.33a7.93 7.93 0 00.602-1.33c.149-.439.224-.854.224-1.246 0-.457-.131-.835-.392-1.134-.262-.308-.658-.462-1.19-.462-.355 0-.7.075-1.036.224-.336.14-.626.303-.868.49l-.462-.798c.326-.28.714-.5 1.162-.658a4.289 4.289 0 011.442-.238c.4 0 .756.06 1.064.182.308.112.569.275.784.49.214.215.378.471.49.77.112.29.168.607.168.952zm5.648 3.024h8.176v1.036h-8.176V5.45z" fill="#fff"/></svg>