<svg width="47" height="11" fill="none" xmlns="http://www.w3.org/2000/svg"><path d="M.078 5.45h8.176v1.036H.078V5.45zm21.81.168h3.891v1.036h-3.892V5.618zm-6.413-1.974l-.755-1.47h-.056l.168 1.414V10h-1.12V.046h.616l4.424 6.482.713 1.4h.07l-.154-1.344V.2h1.12v9.954h-.643l-4.383-6.51zm6.147-1.232c0-.42.055-.78.168-1.078.111-.299.26-.546.448-.742.195-.196.424-.336.686-.42.27-.093.56-.14.867-.14.308 0 .593.042.854.126.271.084.5.22.686.406.197.187.35.434.463.742.111.299.168.667.168 1.106 0 .439-.056.812-.168 1.12a1.914 1.914 0 01-.463.728 1.64 1.64 0 01-.686.406 2.777 2.777 0 01-.854.126c-.308 0-.597-.042-.867-.126a1.764 1.764 0 01-.686-.406 2.01 2.01 0 01-.448-.728c-.113-.308-.168-.681-.168-1.12zm1.035 0c0 .56.099.961.294 1.204.206.243.486.364.84.364.178 0 .337-.023.476-.07a.866.866 0 00.35-.252 1.13 1.13 0 00.224-.476 2.98 2.98 0 00.084-.77c0-.308-.027-.56-.084-.756a1.03 1.03 0 00-.224-.476.722.722 0 00-.35-.252 1.273 1.273 0 00-.476-.084c-.354 0-.634.112-.84.336-.195.215-.294.625-.294 1.232zm7.469 6.776c.317 0 .61-.047.882-.14.27-.093.504-.229.7-.406a2.01 2.01 0 00.63-1.484c0-.653-.196-1.139-.588-1.456-.383-.317-.915-.476-1.596-.476h-1.036V4.82l2.016-3.108.644-.616-.91.14h-2.772V.2h4.998v.406l-2.226 3.346-.49.406v.028l.476-.098c.373.01.718.08 1.036.21.317.121.592.303.826.546.233.233.415.518.546.854.13.327.196.7.196 1.12 0 .504-.09.952-.266 1.344a2.89 2.89 0 01-.728.994 3.127 3.127 0 01-1.064.602c-.411.14-.845.21-1.302.21-.42 0-.798-.033-1.134-.098a4.748 4.748 0 01-.882-.252l.294-.994c.214.103.466.191.756.266.298.065.63.098.994.098zm8.616-3.738h8.176v1.036h-8.176V5.45z" fill="#333"/></svg>