<svg width="47" height="11" fill="none" xmlns="http://www.w3.org/2000/svg"><path d="M.078 5.45h8.176v1.036H.078V5.45zm21.81.168h3.891v1.036h-3.892V5.618zm-6.413-1.974l-.755-1.47h-.056l.168 1.414V10h-1.12V.046h.616l4.424 6.482.713 1.4h.07l-.154-1.344V.2h1.12v9.954h-.643l-4.383-6.51zm6.147-1.232c0-.42.055-.78.168-1.078.111-.299.26-.546.448-.742.195-.196.424-.336.686-.42.27-.093.56-.14.867-.14.308 0 .593.042.854.126.271.084.5.22.686.406.197.187.35.434.463.742.111.299.168.667.168 1.106 0 .439-.056.812-.168 1.12a1.914 1.914 0 01-.463.728 1.64 1.64 0 01-.686.406 2.777 2.777 0 01-.854.126c-.308 0-.597-.042-.867-.126a1.764 1.764 0 01-.686-.406 2.01 2.01 0 01-.448-.728c-.113-.308-.168-.681-.168-1.12zm1.035 0c0 .56.099.961.294 1.204.206.243.486.364.84.364.178 0 .337-.023.476-.07a.866.866 0 00.35-.252 1.13 1.13 0 00.224-.476 2.98 2.98 0 00.084-.77c0-.308-.027-.56-.084-.756a1.03 1.03 0 00-.224-.476.722.722 0 00-.35-.252 1.273 1.273 0 00-.476-.084c-.354 0-.634.112-.84.336-.195.215-.294.625-.294 1.232zM34.186 6.99h-1.652V10h-1.092V6.99H27.13v-.462L31.778.046h.756V6.01h1.652v.98zm-2.744-4.032l.14-1.148h-.042l-.49.952-1.974 2.674-.672.686.98-.112h2.058V2.958zm7.3 2.492h8.176v1.036h-8.176V5.45z" fill="#333"/></svg>